<svg width="44" height="44" viewBox="0 0 44 44" fill="none" xmlns="http://www.w3.org/2000/svg">
<circle cx="22" cy="22" r="22" fill="white"/>
<g clip-path="url(#clip0_7464_27)">
<path d="M27.7368 12.3904C24.7961 12.3904 22.368 14.5845 22 17.4249C21.632 14.5845 19.2039 12.3904 16.2632 12.3904C13.0682 12.3904 10.4781 14.9805 10.4781 18.1755C10.4781 21.3706 14.3163 24.655 16.0454 26.1392C17.6608 27.5259 22 31.6097 22 31.6097C22 31.6097 26.3392 27.5259 27.9546 26.1392C29.6837 24.655 33.5219 21.3706 33.5219 18.1755C33.5219 14.9805 30.9318 12.3904 27.7368 12.3904Z" fill="#FF1D25"/>
<path d="M22 32.0878C21.8822 32.0878 21.7644 32.0445 21.6723 31.9579C21.629 31.9171 17.3226 27.8657 15.734 26.502L15.7174 26.4877C13.8616 24.8948 10 21.5801 10 18.1756C10 14.722 12.8097 11.9124 16.2632 11.9124C18.7951 11.9124 21.0225 13.4381 22 15.6597C22.9775 13.4381 25.2049 11.9124 27.7368 11.9124C31.1903 11.9124 34 14.722 34 18.1756C34 21.5801 30.1384 24.8948 28.2826 26.4877L28.266 26.502C26.6773 27.8658 22.371 31.9171 22.3277 31.9579C22.2356 32.0445 22.1178 32.0878 22 32.0878ZM16.2632 12.8685C13.3369 12.8685 10.9562 15.2493 10.9562 18.1756C10.9562 21.1407 14.7291 24.3793 16.3402 25.7622L16.3568 25.7765C17.7021 26.9313 20.9562 29.9748 22 30.9539C23.0438 29.9748 26.2979 26.9313 27.6432 25.7765L27.6598 25.7622C29.2709 24.3793 33.0438 21.1407 33.0438 18.1756C33.0438 15.2493 30.6631 12.8685 27.7368 12.8685C25.0777 12.8685 22.8153 14.8538 22.4741 17.4864C22.4432 17.7247 22.2403 17.9031 22 17.9031C21.7597 17.9031 21.5568 17.7248 21.5259 17.4864C21.1848 14.8538 18.9223 12.8685 16.2632 12.8685Z" fill="black"/>
<path d="M22.0482 29.6983C21.9313 29.6983 21.8142 29.6557 21.722 29.5696C20.4343 28.3673 18.1139 26.2126 17.0411 25.2917L17.0266 25.2792C16.8463 25.1245 16.6419 24.949 16.4217 24.7564C16.2229 24.5826 16.2027 24.2805 16.3766 24.0818C16.5504 23.883 16.8524 23.8629 17.0512 24.0367C17.268 24.2264 17.4706 24.4003 17.6494 24.5537L17.6639 24.5662C18.6955 25.4517 20.795 27.3958 22.3746 28.8708C22.5676 29.051 22.5779 29.3535 22.3977 29.5465C22.3036 29.6473 22.176 29.6983 22.0482 29.6983Z" fill="black"/>
<path d="M15.4159 23.664C15.2959 23.664 15.1759 23.6192 15.083 23.5289C14.7669 23.2222 14.4679 22.9168 14.1941 22.6214C14.0146 22.4278 14.0261 22.1253 14.2198 21.9458C14.4134 21.7663 14.7159 21.7778 14.8954 21.9715C15.1578 22.2545 15.445 22.5477 15.749 22.8429C15.9385 23.0268 15.943 23.3295 15.759 23.5189C15.6652 23.6155 15.5407 23.664 15.4159 23.664Z" fill="black"/>
</g>
<defs>
<clipPath id="clip0_7464_27">
<rect width="24" height="24" fill="white" transform="translate(10 10)"/>
</clipPath>
</defs>
</svg>
